<svg width="316" height="254" viewBox="0 0 316 254" fill="none" xmlns="http://www.w3.org/2000/svg">
<path fill-rule="evenodd" clip-rule="evenodd" d="M52.4 60.3998L23.3664 0.799805C17.1221 0.799805 11.6667 3.06647 7 7.5998C2.33333 12.1331 0 17.5269 0 23.781V230.2C0 236.325 2.30213 241.689 6.9064 246.293C11.5104 250.898 16.8749 253.2 23 253.2H293C299.125 253.2 304.49 250.898 309.094 246.293C313.698 241.689 316 236.325 316 230.2V23.7998C316 17.6747 313.698 12.3102 309.094 7.7062C304.49 3.10193 299.125 0.799805 293 0.799805H249L278 60.3998H226.4L197.5 0.799805H162L191 60.3998H139.4L110.5 0.799805H75L104 60.3998H52.4ZM23 230.2V83.3998H293V230.2H23ZM130.18 198C128.744 198 127.623 197.707 126.815 197.12C126.008 196.533 125.425 195.8 125.066 194.92L96.2691 124.3C96.0897 123.933 96 123.603 96 123.31C96 122.65 96.2691 122.1 96.8074 121.66C97.3457 121.22 98.0185 121 98.8259 121H110.668C111.924 121 112.866 121.293 113.494 121.88C114.211 122.393 114.66 122.907 114.839 123.42L137.581 180.07L160.188 123.42C160.457 122.907 160.905 122.393 161.533 121.88C162.251 121.293 163.238 121 164.494 121H182.725C184.071 121 185.103 121.293 185.82 121.88C186.538 122.393 187.076 123.017 187.435 123.75L219.865 194.7C219.955 195.067 220 195.397 220 195.69C220 196.35 219.731 196.9 219.193 197.34C218.654 197.78 218.026 198 217.309 198H205.601C204.346 198 203.404 197.78 202.776 197.34C202.237 196.827 201.879 196.35 201.699 195.91L195.375 182.49H155.409L153.593 186.342L150.095 194.92C149.736 195.8 149.153 196.533 148.346 197.12C148.09 197.306 147.803 197.462 147.484 197.589C146.94 197.863 146.172 198 145.182 198H130.18ZM162.423 164.689L160.322 169.84H190.665L175.324 135.85L162.423 164.689Z" fill="white"/>
</svg>
