<svg width="48" height="48" viewBox="0 0 48 48" fill="none" xmlns="http://www.w3.org/2000/svg">
<mask id="mask0_110_5514" style="mask-type:alpha" maskUnits="userSpaceOnUse" x="11" y="11" width="26" height="26">
<rect x="11" y="11" width="26" height="26" fill="#D9D9D9"/>
</mask>
<g mask="url(#mask0_110_5514)">
<path d="M24.312 34.725C22.8676 34.5805 21.4863 34.1946 20.1682 33.5672C18.8502 32.9397 17.6901 32.0934 16.688 31.0281C15.686 29.9628 14.8825 28.6922 14.2776 27.2161C13.6728 25.7401 13.3523 24.0767 13.3162 22.226C15.0134 22.2531 16.5368 22.5375 17.8865 23.0791C19.2361 23.6208 20.3872 24.4153 21.3396 25.4625C22.292 26.5097 23.0233 27.8074 23.5334 29.3557C24.0434 30.904 24.303 32.6937 24.312 34.725ZM23.9735 26.5458C23.4318 25.643 22.8946 24.905 22.362 24.3317C21.8294 23.7585 21.1116 23.1784 20.2089 22.5916C20.2721 21.8153 20.4143 21.0118 20.6354 20.1812C20.8566 19.3507 21.1342 18.5337 21.4682 17.7302C21.8023 16.9267 22.1814 16.1503 22.6057 15.401C23.0301 14.6517 23.486 13.9837 23.9735 13.3969C24.4519 13.9837 24.9078 14.6472 25.3412 15.3875C25.7745 16.1278 26.1627 16.9132 26.5057 17.7437C26.8488 18.5743 27.1332 19.4161 27.3589 20.2692C27.5846 21.1224 27.729 21.9462 27.7922 22.7406C27.0339 23.0746 26.3252 23.5915 25.6662 24.2911C25.0071 24.9908 24.4429 25.7423 23.9735 26.5458ZM25.8693 34.3187C25.8241 33.1993 25.7181 32.1069 25.5511 31.0416C25.384 29.9764 25.1426 29.0465 24.8266 28.2521C25.6481 26.4916 26.9684 25.0337 28.7875 23.8781C30.6066 22.7225 32.5724 22.1538 34.6849 22.1719C34.5044 25.4219 33.6535 28.0602 32.1323 30.087C30.6111 32.1137 28.5235 33.5243 25.8693 34.3187Z" fill="black"/>
</g>
</svg>
