<svg width="48" height="48" viewBox="0 0 48 48" fill="none" xmlns="http://www.w3.org/2000/svg">
<mask id="mask0_102_4871" style="mask-type:alpha" maskUnits="userSpaceOnUse" x="8" y="8" width="32" height="32">
<rect width="32" height="32" transform="matrix(-1 0 0 1 40 8)" fill="#D9D9D9"/>
</mask>
<g mask="url(#mask0_102_4871)">
<path d="M34.4839 24.0167C34.8506 24.0167 35.17 23.8768 35.4422 23.5969C35.7145 23.3171 35.8506 23.0004 35.8506 22.6469C35.8506 22.2934 35.7145 21.9778 35.4422 21.7C35.17 21.4222 34.8506 21.2833 34.4839 21.2833C34.1395 21.2833 33.8256 21.4233 33.5422 21.7031C33.2589 21.983 33.1172 22.2996 33.1172 22.6531C33.1172 23.0066 33.2589 23.3222 33.5422 23.6C33.8256 23.8778 34.1395 24.0167 34.4839 24.0167ZM35.8488 37.2167V31.1333H37.1672V25.6833C37.1672 25.4228 37.0649 25.216 36.8603 25.0629C36.6557 24.9099 36.4026 24.8333 36.1011 24.8333H32.8695C32.568 24.8333 32.3145 24.9099 32.1089 25.0629C31.9033 25.216 31.8006 25.4228 31.8006 25.6833V31.1357H33.0839V35.3H20.8172V27.1667H23.5172C24.9338 27.1667 26.1435 26.6899 27.1464 25.7364C28.1492 24.7828 28.6506 23.6233 28.6506 22.2581C28.6506 21.2527 28.3506 20.2917 27.7506 19.375C27.1506 18.4583 26.295 17.8111 25.1839 17.4333C25.0395 15.8889 24.445 14.6278 23.4006 13.65C22.3561 12.6722 21.1395 12.1833 19.7506 12.1833C18.3613 12.1833 17.1445 12.6722 16.1003 13.65C15.056 14.6278 14.4506 15.8889 14.2839 17.4333C13.1839 17.8111 12.3311 18.4583 11.7256 19.375C11.12 20.2917 10.8172 21.2503 10.8172 22.2508C10.8172 23.6218 11.3256 24.7838 12.3423 25.737C13.3591 26.6901 14.5729 27.1667 15.9839 27.1667H18.9006V35.3H11.9172V37.2167H35.8488Z" fill="black"/>
</g>
</svg>
