<svg width="48" height="48" viewBox="0 0 48 48" fill="none" xmlns="http://www.w3.org/2000/svg">
<path d="M23.9929 23.9424C22.4542 23.9424 21.1588 23.4156 20.1068 22.3619C19.0548 21.3082 18.5288 20.0106 18.5288 18.4691C18.5288 16.9578 19.0556 15.6684 20.1093 14.601C21.163 13.5337 22.4606 13 24.0021 13C25.5134 13 26.8028 13.5326 27.8702 14.5978C28.9375 15.663 29.4712 16.9565 29.4712 18.4783C29.4712 20.017 28.9386 21.3124 27.8734 22.3644C26.8082 23.4164 25.5147 23.9424 23.9929 23.9424ZM13 35V31.5675C13 30.6768 13.311 29.9089 13.933 29.2639C14.555 28.6188 15.2806 28.089 16.1099 27.6743C17.3562 27.069 18.6355 26.622 19.9476 26.3334C21.2598 26.0448 22.6069 25.9005 23.9888 25.9005C25.3708 25.9005 26.7183 26.0464 28.0314 26.3382C29.3445 26.63 30.623 27.0754 31.867 27.6743C32.6963 28.089 33.4258 28.6188 34.0555 29.2639C34.6852 29.9089 35 30.6768 35 31.5675V35H13Z" fill="black"/>
</svg>
