<svg width="48" height="48" viewBox="0 0 48 48" fill="none" xmlns="http://www.w3.org/2000/svg">
<path d="M23.5659 20.4305C22.3669 20.4305 21.3575 20.0246 20.5378 19.2128C19.718 18.401 19.3082 17.4013 19.3082 16.2136C19.3082 15.0492 19.7187 14.0559 20.5397 13.2335C21.3608 12.4112 22.3719 12 23.5731 12C24.7507 12 25.7554 12.4103 26.5871 13.231C27.4188 14.0517 27.8347 15.0483 27.8347 16.2207C27.8347 17.4062 27.4197 18.4042 26.5896 19.2147C25.7596 20.0252 24.7517 20.4305 23.5659 20.4305ZM15 36V26.3052C15 25.6189 15.2423 25.0273 15.727 24.5304C16.2117 24.0334 16.7771 23.6252 17.4233 23.3057C18.3945 22.8393 19.3913 22.4949 20.4137 22.2726C21.4362 22.0503 22.4859 21.9391 23.5627 21.9391C24.6396 21.9391 25.6896 22.0515 26.7128 22.2763C27.736 22.5011 28.7322 22.8443 29.7016 23.3057C30.3478 23.6252 30.9162 24.0334 31.4069 24.5304C31.8975 25.0273 32.1429 25.6189 32.1429 26.3052V36H15Z" fill="black"/>
</svg>
