<svg width="48" height="48" viewBox="0 0 48 48" fill="none" xmlns="http://www.w3.org/2000/svg">
<path d="M24 14.8033C23.3168 14.8033 22.7215 14.5575 22.2143 14.0657C21.707 13.5739 21.4534 13.0174 21.4534 12.3962C21.4534 11.775 21.707 11.2204 22.2143 10.7322C22.7215 10.2441 23.3168 10 24 10C24.6418 10 25.2267 10.2459 25.7547 10.7377C26.2826 11.2294 26.5466 11.7859 26.5466 12.4071C26.5466 13.0283 26.2826 13.583 25.7547 14.0711C25.2267 14.5593 24.6418 14.8033 24 14.8033Z" fill="black"/>
<path d="M21.4567 38V27.3096H19V17.7322C19 17.2743 19.1906 16.9109 19.5719 16.642C19.9532 16.373 20.4247 16.2385 20.9865 16.2385H27.0082C27.57 16.2385 28.0424 16.373 28.4255 16.642C28.8085 16.9109 29 17.2743 29 17.7322V27.3138H26.6087V34.6318V38H21.4567Z" fill="black"/>
</svg>
