<svg width="48" height="48" viewBox="0 0 48 48" fill="none" xmlns="http://www.w3.org/2000/svg">
<mask id="mask0_102_4875" style="mask-type:alpha" maskUnits="userSpaceOnUse" x="14" y="14" width="20" height="20">
<rect x="14" y="14" width="20" height="20" fill="#D9D9D9"/>
</mask>
<g mask="url(#mask0_102_4875)">
<path d="M23.6038 33.8542C23.0968 33.8542 22.6107 33.776 22.1454 33.6198C21.6801 33.4635 21.2975 33.2269 20.9975 32.91L15.01 26.6562L16.1663 25.6354C16.3954 25.434 16.638 25.3247 16.894 25.3073C17.1501 25.2899 17.4109 25.3611 17.6767 25.5208L21.0725 27.5104V17.3958C21.0725 17.05 21.1945 16.7552 21.4386 16.5115C21.6826 16.2677 21.9778 16.1458 22.324 16.1458C22.6702 16.1458 22.9649 16.2677 23.2079 16.5115C23.451 16.7552 23.5725 17.05 23.5725 17.3958V23.1562H24.1767V15.375C24.1767 15.0292 24.297 14.7344 24.5375 14.4906C24.7781 14.2469 25.075 14.125 25.4282 14.125C25.7744 14.125 26.069 14.2469 26.3121 14.4906C26.5551 14.7344 26.6767 15.0292 26.6767 15.375V23.1562H27.2704V16.1771C27.2704 15.8312 27.3924 15.5365 27.6365 15.2927C27.8805 15.049 28.1757 14.9271 28.5219 14.9271C28.8681 14.9271 29.1628 15.049 29.4058 15.2927C29.6489 15.5365 29.7704 15.8312 29.7704 16.1771V23.1562H30.3746V18.6146C30.3746 18.2687 30.4966 17.974 30.7407 17.7302C30.9847 17.4865 31.2798 17.3646 31.6261 17.3646C31.9723 17.3646 32.267 17.4865 32.51 17.7302C32.7531 17.974 32.8746 18.2687 32.8746 18.6146V30.7917C32.8746 31.6458 32.5742 32.3698 31.9736 32.9635C31.3729 33.5573 30.6454 33.8542 29.7913 33.8542H23.6038Z" fill="black"/>
</g>
</svg>
