<svg width="32" height="32" viewBox="0 0 32 32" fill="none" xmlns="http://www.w3.org/2000/svg">
<mask id="mask0_110_5025" style="mask-type:alpha" maskUnits="userSpaceOnUse" x="0" y="0" width="32" height="32">
<rect width="32" height="32" fill="#D9D9D9"/>
</mask>
<g mask="url(#mask0_110_5025)">
<path d="M4.78324 26.5166C4.27282 26.5166 3.82578 26.3248 3.44211 25.9411C3.05842 25.5574 2.86658 25.1104 2.86658 24.5999V7.39994C2.86658 6.88952 3.05842 6.44248 3.44211 6.05881C3.82578 5.67512 4.27282 5.48328 4.78324 5.48328H21.9903C22.4842 5.48328 22.926 5.67512 23.3155 6.05881C23.7051 6.44248 23.8999 6.88952 23.8999 7.39994V14.5833L29.1499 9.33328V22.6666L23.8999 17.4166V24.5999C23.8999 25.1104 23.7051 25.5574 23.3155 25.9411C22.926 26.3248 22.4842 26.5166 21.9903 26.5166H4.78324Z" fill="white"/>
</g>
</svg>
